<svg xmlns="http://www.w3.org/2000/svg" viewBox="0 0 500.64 238.31" width="500.6" height="238.3" role="img" aria-label="Finateo — Finance Advisory">
<rect width="500.64" height="238.31" fill="#16382C"/>
<path fill="#F4F1E8" transform="translate(50.400,132.720) scale(0.120000,-0.120000)" d="M53 0V16L136 57V603L53 644V660H565V487H549L483 605H261V366H412L466 451H482V232H466L412 315H261V57L359 16V0Z"/>
<path fill="#F4F1E8" transform="translate(122.640,132.720) scale(0.120000,-0.120000)" d="M162 571Q133 571 114.0 590.5Q95 610 95 639Q95 668 114.0 687.0Q133 706 162 706Q191 706 210.5 687.0Q230 668 230 639Q230 610 210.5 590.5Q191 571 162 571ZM42 0V16L107 48V350L45 398V409L213 464H223V48L284 16V0Z"/>
<path fill="#F4F1E8" transform="translate(159.000,132.720) scale(0.120000,-0.120000)" d="M38 0V16L103 48V350L41 395V405L199 464H209L218 390H223Q260 426 294.5 445.0Q329 464 373 464Q433 464 471.5 433.5Q510 403 510 343V48L575 16V0H335V16L394 48V300Q394 338 370.5 358.5Q347 379 311 379Q288 379 262.0 371.0Q236 363 219 349V48L278 16V0Z"/>
<path fill="#F4F1E8" transform="translate(228.720,132.720) scale(0.120000,-0.120000)" d="M153 -10Q102 -10 70.5 20.0Q39 50 39 100Q39 152 73.0 185.5Q107 219 197 241L294 265V331Q294 368 270.5 391.0Q247 414 212 414Q198 414 184.0 411.0Q170 408 153 400V302H80Q63 302 56.5 310.0Q50 318 50 338Q50 367 77.0 396.0Q104 425 148.5 444.5Q193 464 246 464Q324 464 367.0 432.5Q410 401 410 344V71Q417 64 429.5 59.5Q442 55 461 55H494L497 52V43Q485 23 460.0 6.5Q435 -10 396 -10Q359 -10 335.5 7.5Q312 25 301 55H294Q267 25 230.5 7.5Q194 -10 153 -10ZM149 126Q149 95 167.5 79.0Q186 63 219 63Q254 63 294 80V227Q231 214 200.0 199.5Q169 185 159.0 167.0Q149 149 149 126Z"/>
<path fill="#F4F1E8" transform="translate(286.560,132.720) scale(0.120000,-0.120000)" d="M216 -10Q162 -10 125.5 16.0Q89 42 89 89V408H13V418L103 454L191 564H205V454H341V408H205V111Q205 86 227.5 73.5Q250 61 280 61Q299 61 314.5 63.0Q330 65 343 68L346 67V53Q332 29 297.5 9.5Q263 -10 216 -10Z"/>
<path fill="#F4F1E8" transform="translate(328.680,132.720) scale(0.120000,-0.120000)" d="M260 -10Q159 -10 101.0 49.0Q43 108 43 206Q43 282 74.5 340.0Q106 398 159.0 431.0Q212 464 276 464Q356 464 401.0 409.0Q446 354 447 254L443 249H155Q155 205 171.0 167.5Q187 130 222.5 107.0Q258 84 318 84Q346 84 378.0 92.5Q410 101 445 119H448V105Q424 56 375.0 23.0Q326 -10 260 -10ZM256 419Q216 419 190.5 386.5Q165 354 158 294H350Q341 363 317.5 391.0Q294 419 256 419Z"/>
<path fill="#F4F1E8" transform="translate(384.960,132.720) scale(0.120000,-0.120000)" d="M272 -10Q203 -10 151.0 21.5Q99 53 70.0 107.0Q41 161 41 227Q41 293 70.0 346.5Q99 400 151.0 432.0Q203 464 272 464Q341 464 393.0 432.0Q445 400 474.0 346.5Q503 293 503 227Q503 161 474.0 107.0Q445 53 393.0 21.5Q341 -10 272 -10ZM284 37Q318 37 339.5 61.0Q361 85 371.0 124.0Q381 163 381 207Q381 261 369.0 309.0Q357 357 330.5 387.5Q304 418 262 418Q228 418 206.0 394.0Q184 370 173.5 331.0Q163 292 163 248Q163 194 175.5 145.5Q188 97 215.0 67.0Q242 37 284 37Z"/>
<rect x="50.40" y="152.38" width="399.84" height="9.23" fill="#B34A1F"/>
<g opacity="0.72"><path fill="#F4F1E8" transform="translate(105.994,190.092) scale(0.018456,-0.018456)" d="M86 0V698H535V604H198V401H504V307H198V0Z"/>
<path fill="#F4F1E8" transform="translate(123.343,190.092) scale(0.018456,-0.018456)" d="M80 0V85H244V613H80V698H520V613H356V85H520V0Z"/>
<path fill="#F4F1E8" transform="translate(140.691,190.092) scale(0.018456,-0.018456)" d="M179 537H170V0H72V698H216L421 161H430V698H528V0H384Z"/>
<path fill="#F4F1E8" transform="translate(158.040,190.092) scale(0.018456,-0.018456)" d="M462 0 409 186H187L134 0H20L224 698H377L581 0ZM302 585H294L208 279H388Z"/>
<path fill="#F4F1E8" transform="translate(175.389,190.092) scale(0.018456,-0.018456)" d="M179 537H170V0H72V698H216L421 161H430V698H528V0H384Z"/>
<path fill="#F4F1E8" transform="translate(192.737,190.092) scale(0.018456,-0.018456)" d="M320 -12Q187 -12 122.5 82.0Q58 176 58 349Q58 522 122.5 616.0Q187 710 320 710Q371 710 408.5 696.5Q446 683 473.0 659.5Q500 636 518.5 604.5Q537 573 549 537L448 503Q440 527 430.0 548.0Q420 569 405.0 584.0Q390 599 369.5 608.0Q349 617 319 617Q245 617 211.0 560.5Q177 504 177 408V290Q177 194 211.0 137.5Q245 81 319 81Q349 81 369.5 90.0Q390 99 405.0 114.0Q420 129 430.0 150.0Q440 171 448 195L549 161Q537 125 518.5 93.5Q500 62 473.0 38.5Q446 15 408.5 1.5Q371 -12 320 -12Z"/>
<path fill="#F4F1E8" transform="translate(210.086,190.092) scale(0.018456,-0.018456)" d="M86 0V698H523V604H198V401H511V307H198V94H523V0Z"/>
<path fill="#F4F1E8" transform="translate(262.132,190.092) scale(0.018456,-0.018456)" d="M462 0 409 186H187L134 0H20L224 698H377L581 0ZM302 585H294L208 279H388Z"/>
<path fill="#F4F1E8" transform="translate(279.480,190.092) scale(0.018456,-0.018456)" d="M82 698H290Q424 698 488.5 609.0Q553 520 553 349Q553 178 488.5 89.0Q424 0 290 0H82ZM283 92Q360 92 397.5 143.5Q435 195 435 291V407Q435 503 397.5 554.5Q360 606 283 606H193V92Z"/>
<path fill="#F4F1E8" transform="translate(296.829,190.092) scale(0.018456,-0.018456)" d="M222 0 25 698H146L238 346L299 109H305L366 346L459 698H575L378 0Z"/>
<path fill="#F4F1E8" transform="translate(314.178,190.092) scale(0.018456,-0.018456)" d="M80 0V85H244V613H80V698H520V613H356V85H520V0Z"/>
<path fill="#F4F1E8" transform="translate(331.526,190.092) scale(0.018456,-0.018456)" d="M294 -12Q203 -12 141.0 20.0Q79 52 39 105L111 174Q151 126 196.0 103.5Q241 81 298 81Q364 81 399.5 111.0Q435 141 435 197Q435 242 409.0 266.5Q383 291 320 302L244 314Q194 322 160.0 340.5Q126 359 105.0 384.5Q84 410 74.5 441.5Q65 473 65 508Q65 607 129.0 658.5Q193 710 305 710Q388 710 446.5 683.5Q505 657 541 609L471 539Q442 574 402.5 595.5Q363 617 305 617Q243 617 210.5 590.5Q178 564 178 513Q178 470 203.5 445.5Q229 421 294 410L368 397Q462 380 505.0 328.5Q548 277 548 203Q548 155 531.5 115.0Q515 75 482.5 47.0Q450 19 402.5 3.5Q355 -12 294 -12Z"/>
<path fill="#F4F1E8" transform="translate(348.875,190.092) scale(0.018456,-0.018456)" d="M300 -12Q234 -12 185.5 12.5Q137 37 105.5 83.0Q74 129 59.0 196.0Q44 263 44 349Q44 434 59.0 501.5Q74 569 105.5 615.0Q137 661 185.5 685.5Q234 710 300 710Q366 710 414.5 685.5Q463 661 494.5 615.0Q526 569 541.0 501.5Q556 434 556 349Q556 263 541.0 196.0Q526 129 494.5 83.0Q463 37 414.5 12.5Q366 -12 300 -12ZM300 81Q375 81 406.0 137.5Q437 194 437 291V408Q437 504 406.0 560.5Q375 617 300 617Q225 617 194.0 560.5Q163 504 163 408V290Q163 194 194.0 137.5Q225 81 300 81Z"/>
<path fill="#F4F1E8" transform="translate(366.224,190.092) scale(0.018456,-0.018456)" d="M195 0H84V698H345Q445 698 497.5 642.0Q550 586 550 488Q550 408 511.0 356.0Q472 304 399 292L560 0H436L288 282H195ZM329 372Q433 372 433 467V510Q433 605 329 605H195V372Z"/>
<path fill="#F4F1E8" transform="translate(383.572,190.092) scale(0.018456,-0.018456)" d="M244 0V263L12 698H137L226 524L298 375H304L377 524L466 698H588L356 263V0Z"/></g>
</svg>